<svg xmlns="http://www.w3.org/2000/svg" width="53.659" height="67.308" viewBox="0 0 53.659 67.308">
  <defs>
    <style>
      .cls-1 {
        fill: rgba(255,255,255,0);
      }

      .cls-2 {
        fill: #fff;
      }

      .cls-3, .cls-4 {
        stroke: none;
      }

      .cls-4 {
        fill: #3a876f;
      }
    </style>
  </defs>
  <g id="Group_10" data-name="Group 10" transform="translate(-676 -346.911)">
    <g id="Group_17" data-name="Group 17">
      <g id="Path_3" data-name="Path 3" class="cls-1" transform="translate(688.57 346.911)">
        <path class="cls-3" d="M 14.25964260101318 52.58867645263672 C 10.77509212493896 52.58867645263672 7.515312671661377 51.57568740844727 5.080792427062988 49.73630905151367 C 2.771682500839233 47.99167633056641 1.50000262260437 45.71118927001953 1.50000262260437 43.31491851806641 L 1.50000262260437 10.77375793457031 C 1.50000262260437 8.377488136291504 2.771682500839233 6.09699821472168 5.080792427062988 4.352368354797363 C 7.515312671661377 2.512988328933716 10.77509212493896 1.499998211860657 14.25964260101318 1.499998211860657 C 17.74419212341309 1.499998211860657 21.00397300720215 2.512988328933716 23.43849182128906 4.352368354797363 C 25.74760246276855 6.09699821472168 27.01928329467773 8.377488136291504 27.01928329467773 10.77375793457031 L 27.01928329467773 14.86505794525146 L 27.01928329467773 43.31491851806641 C 27.01928329467773 45.71118927001953 25.74760246276855 47.99167633056641 23.43849182128906 49.73630905151367 C 21.00397300720215 51.57568740844727 17.74419212341309 52.58867645263672 14.25964260101318 52.58867645263672 Z"/>
        <path class="cls-4" d="M 14.25964260101318 3 C 11.09942245483398 3 8.160772323608398 3.905319213867188 5.98503303527832 5.549179077148438 C 4.060102462768555 7.0035400390625 3.000001907348633 8.858997344970703 3.000001907348633 10.77375793457031 L 3.000001907348633 43.31491851806641 C 3.000001907348633 45.22967910766602 4.060102462768555 47.08513641357422 5.98503303527832 48.53949737548828 C 8.160772323608398 50.18335723876953 11.09942245483398 51.08867645263672 14.25964260101318 51.08867645263672 C 17.41986274719238 51.08867645263672 20.35851287841797 50.18335723876953 22.53425216674805 48.53949737548828 C 24.45918273925781 47.08513641357422 25.51928329467773 45.22967910766602 25.51928329467773 43.31491851806641 L 25.51928329467773 10.77375793457031 C 25.51928329467773 8.858997344970703 24.45918273925781 7.0035400390625 22.53425216674805 5.549179077148438 C 20.35851287841797 3.905319213867188 17.41986274719238 3 14.25964260101318 3 M 14.25964260101318 0 C 22.13502311706543 0 28.51928329467773 4.823577880859375 28.51928329467773 10.77375793457031 L 28.51928329467773 43.31491851806641 C 28.51928329467773 49.26509857177734 22.13502311706543 54.08867645263672 14.25964260101318 54.08867645263672 C 6.384262084960938 54.08867645263672 1.9073486328125e-06 49.26509857177734 1.9073486328125e-06 43.31491851806641 L 1.9073486328125e-06 10.77375793457031 C 1.9073486328125e-06 4.823577880859375 6.384262084960938 0 14.25964260101318 0 Z"/>
      </g>
      <g id="Path_5" data-name="Path 5" class="cls-2" transform="translate(676 370)">
        <path class="cls-3" d="M 52.15942001342773 42.71942138671875 L 1.500001907348633 42.71942138671875 L 1.500001907348633 1.50000262260437 L 52.15942001342773 1.50000262260437 L 52.15942001342773 42.71942138671875 Z"/>
        <path class="cls-4" d="M 3.000003814697266 3.000003814697266 L 3.000003814697266 41.21942138671875 L 50.659423828125 41.21942138671875 L 50.659423828125 3.000003814697266 L 3.000003814697266 3.000003814697266 M 3.814697265625e-06 3.814697265625e-06 L 53.65942001342773 3.814697265625e-06 L 53.65942001342773 44.21942138671875 L 3.814697265625e-06 44.21942138671875 L 3.814697265625e-06 3.814697265625e-06 Z"/>
      </g>
    </g>
  </g>
</svg>
