<svg xmlns="http://www.w3.org/2000/svg" width="98" height="149" viewBox="0 0 98 149">
  <defs>
    <style>
      .cls-1 {
        fill: rgba(255,255,255,0);
      }

      .cls-2 {
        fill: #fff;
      }

      .cls-3, .cls-4 {
        stroke: none;
      }

      .cls-4 {
        fill: #3a876f;
      }
    </style>
  </defs>
  <g id="Group_10" data-name="Group 10" transform="translate(-513 -312)">
    <g id="Path_3" data-name="Path 3" class="cls-1" transform="translate(538 312)">
      <path class="cls-3" d="M 24.5 121.5 C 21.39435005187988 121.5 18.38240051269531 120.8920974731445 15.54781627655029 119.6931686401367 C 12.80916690826416 118.5348129272461 10.34930038452148 116.8762130737305 8.236533164978027 114.7634658813477 C 6.123783111572266 112.6507034301758 4.465183258056641 110.1908340454102 3.306833267211914 107.4521865844727 C 2.107899904251099 104.6175994873047 1.5 101.6056518554688 1.5 98.5 L 1.5 24.5 C 1.5 21.39436721801758 2.107899904251099 18.38241577148438 3.306833267211914 15.54783344268799 C 4.465183258056641 12.80918312072754 6.123783111572266 10.34931659698486 8.236550331115723 8.236550331115723 C 10.34930038452148 6.123783111572266 12.80916690826416 4.465183258056641 15.54781627655029 3.306833267211914 C 18.38241577148438 2.107916593551636 21.39435005187988 1.5 24.5 1.5 C 27.60564994812012 1.5 30.61758422851562 2.107916593551636 33.45218276977539 3.306833267211914 C 36.19083404541016 4.465183258056641 38.65069961547852 6.123783111572266 40.76345062255859 8.236550331115723 C 42.87621688842773 10.34931659698486 44.53481674194336 12.80918312072754 45.69316482543945 15.54783344268799 C 46.8921012878418 18.38241577148438 47.5 21.39436721801758 47.5 24.5 L 47.5 33.80378341674805 L 47.5 98.5 C 47.5 101.6056518554688 46.8921012878418 104.6175994873047 45.69316482543945 107.4521865844727 C 44.53481674194336 110.1908340454102 42.87621688842773 112.6507034301758 40.76346588134766 114.7634658813477 C 38.65069961547852 116.8762130737305 36.19083404541016 118.5348129272461 33.45218276977539 119.6931686401367 C 30.61759948730469 120.8920974731445 27.60564994812012 121.5 24.5 121.5 Z"/>
      <path class="cls-4" d="M 24.5 3 C 21.59620094299316 3 18.78083610534668 3.568038940429688 16.13214492797852 4.688346862792969 C 13.57230758666992 5.771072387695312 11.27268981933594 7.321708679199219 9.297199249267578 9.297203063964844 C 7.321708679199219 11.27268981933594 5.771072387695312 13.57231140136719 4.688346862792969 16.13214874267578 C 3.568035125732422 18.78083801269531 3 21.59619903564453 3 24.5 L 3 98.5 C 3 101.4038009643555 3.568035125732422 104.2191619873047 4.688346862792969 106.8678588867188 C 5.771072387695312 109.4276885986328 7.321708679199219 111.7273101806641 9.297199249267578 113.7027969360352 C 11.27268981933594 115.6782913208008 13.57230758666992 117.2289276123047 16.13214492797852 118.311653137207 C 18.78083610534668 119.4319610595703 21.59620094299316 120 24.5 120 C 27.40379905700684 120 30.21916389465332 119.4319610595703 32.86785507202148 118.311653137207 C 35.42768859863281 117.2289276123047 37.72731018066406 115.6782913208008 39.70280075073242 113.7027969360352 C 41.67829132080078 111.7273101806641 43.22892761230469 109.4276885986328 44.31165313720703 106.8678588867188 C 45.43196487426758 104.2191619873047 46 101.4038009643555 46 98.5 L 46 24.5 C 46 21.59619903564453 45.43196487426758 18.78083801269531 44.31165313720703 16.13214874267578 C 43.22892761230469 13.57231140136719 41.67829132080078 11.27268981933594 39.70280075073242 9.297203063964844 C 37.72731018066406 7.321708679199219 35.42768859863281 5.771072387695312 32.86785507202148 4.688346862792969 C 30.21916389465332 3.568038940429688 27.40379905700684 3 24.5 3 M 24.5 0 C 38.03098297119141 0 49 10.96901702880859 49 24.5 L 49 98.5 C 49 112.0309829711914 38.03098297119141 123 24.5 123 C 10.96901702880859 123 0 112.0309829711914 0 98.5 L 0 24.5 C 0 10.96901702880859 10.96901702880859 0 24.5 0 Z"/>
    </g>
    <g id="Path_5" data-name="Path 5" class="cls-2" transform="translate(513 368)">
      <path class="cls-3" d="M 96.5 91.5 L 1.5 91.5 L 1.5 1.5 L 96.5 1.5 L 96.5 91.5 Z"/>
      <path class="cls-4" d="M 3 3 L 3 90 L 95 90 L 95 3 L 3 3 M 0 0 L 98 0 L 98 93 L 0 93 L 0 0 Z"/>
    </g>
  </g>
</svg>
